<svg xmlns="http://www.w3.org/2000/svg" xmlns:xlink="http://www.w3.org/1999/xlink" width="494" height="456" viewBox="278 284 494 456"><defs><linearGradient id="gradient_0" gradientUnits="userSpaceOnUse" x1="337.49524" y1="345.96796" x2="335.4729" y2="594.44739"><stop offset="0" stop-color="#FF9A1B"/><stop offset="1" stop-color="#C43D2A"/></linearGradient></defs><path fill="url(#gradient_0)" d="M278.979 388.547C278.11 371.505 279.23 351.304 278.804 334.103C278.896 318.544 276.869 305.205 289.04 293.41C301.156 281.668 316.939 284.579 332.579 284.608L357.851 284.48C366.968 284.508 373.837 284.918 381.571 290.643C397.711 302.59 394.642 320.791 394.62 338.807L394.458 386.83C394.747 412.075 394.402 437.555 394.537 462.851L394.487 534.554C394.494 541.535 395.15 559.699 394.525 565.653C394.561 567.024 394.681 569.231 394.591 570.521C394.099 587.111 394.785 604.141 394.487 620.765C394.39 626.173 394.786 634.22 394.413 639.23C394.515 654.141 394.538 669.052 394.482 683.963C394.47 699.098 396.985 717.34 385.112 729.043C377.386 736.659 370.079 739.09 359.276 739.112L332.778 739.095C317.537 739.167 300.912 741.786 289.35 729.877C280.333 720.589 278.372 711.14 278.988 698.528C279.433 684.101 278.486 668.181 279.08 653.875C278.841 649.879 278.913 645.171 278.97 641.13C279.371 612.624 278.206 583.738 278.954 555.269C278.531 552 278.776 540.125 278.774 536.425L278.784 496.325L278.828 427.106C278.83 414.991 278.476 400.509 278.979 388.547Z"/><defs><linearGradient id="gradient_1" gradientUnits="userSpaceOnUse" x1="336.16074" y1="642.54895" x2="337.11011" y2="738.25684"><stop offset="0" stop-color="#463B5A"/><stop offset="1" stop-color="#003779"/></linearGradient></defs><path fill="url(#gradient_1)" d="M279.08 653.875C279.758 652.717 279.495 646.617 279.478 644.85L280.05 644.329C280.103 644.347 283.72 645.703 283.425 645.738C313.865 642.139 344.78 643.239 375.37 643.795C381.003 643.897 388.054 642.054 393.346 642.617C393.356 644.5 393.191 647.898 393.694 649.528C394.115 646.819 393.82 643.266 394.326 639.787L394.413 639.23C394.515 654.141 394.538 669.052 394.482 683.963C394.47 699.098 396.985 717.34 385.112 729.043C377.386 736.659 370.079 739.09 359.276 739.112L332.778 739.095C317.537 739.167 300.912 741.786 289.35 729.877C280.333 720.589 278.372 711.14 278.988 698.528C279.433 684.101 278.486 668.181 279.08 653.875Z"/><path fill="#F89A23" d="M278.979 388.547C278.11 371.505 279.23 351.304 278.804 334.103C278.896 318.544 276.869 305.205 289.04 293.41C301.156 281.668 316.939 284.579 332.579 284.608L357.851 284.48C366.968 284.508 373.837 284.918 381.571 290.643C397.711 302.59 394.642 320.791 394.62 338.807L394.458 386.83C390.77 376.649 397.75 366.085 386.114 359.443C383.724 358.078 380.371 353.817 377.294 352.888C365.496 347.528 352.695 353.663 340.812 354.976C333.803 355.586 326.769 354.262 319.744 354.308C316.261 354.33 312.555 356.004 308.912 355.736C304.372 355.402 298.971 352.401 294.652 351.373C291.901 350.718 284.647 346.858 282.875 347.167C282.202 347.791 281.608 348.347 280.955 348.996L280.357 348.514L280.223 345.799C279.042 348.454 280.138 381.127 278.979 388.547Z"/><defs><linearGradient id="gradient_2" gradientUnits="userSpaceOnUse" x1="336.15677" y1="590.70947" x2="336.86298" y2="644.80334"><stop offset="0" stop-color="#9C4539"/><stop offset="1" stop-color="#503D56"/></linearGradient></defs><path fill="url(#gradient_2)" d="M278.954 555.269C281.655 561.812 277.622 590.919 280.936 594.294C285.904 593.014 295.774 592.77 301.012 592.606C324.193 591.882 347.476 592.274 370.664 592.435C374.937 592.469 390.355 589.517 392.79 590.672L393.469 590.211C393.72 583.334 392.33 571.51 394.525 565.653C394.561 567.024 394.681 569.231 394.591 570.521C394.099 587.111 394.785 604.141 394.487 620.765C394.39 626.173 394.786 634.22 394.413 639.23L394.326 639.787C393.82 643.266 394.115 646.819 393.694 649.528C393.191 647.898 393.356 644.5 393.346 642.617C388.054 642.054 381.003 643.897 375.37 643.795C344.78 643.239 313.865 642.139 283.425 645.738C283.72 645.703 280.103 644.347 280.05 644.329L279.478 644.85C279.495 646.617 279.758 652.717 279.08 653.875C278.841 649.879 278.913 645.171 278.97 641.13C279.371 612.624 278.206 583.738 278.954 555.269Z"/><defs><linearGradient id="gradient_3" gradientUnits="userSpaceOnUse" x1="545.09906" y1="442.05463" x2="720.8924" y2="570.93628"><stop offset="0" stop-color="#351D31"/><stop offset="1" stop-color="#005691"/></linearGradient></defs><path fill="url(#gradient_3)" d="M565.988 411.747L628.857 347.653L725.635 446.91L754.542 476.506C759.302 481.39 764.469 486.37 768.791 491.601C771.905 495.371 772.282 503.724 768.893 507.527C763.07 514.062 756.74 520.223 750.574 526.438L715.769 561.589L664.824 613.186C656.863 621.223 646.913 632.345 638.568 639.418C635.573 638.909 626.313 651.68 622.702 653.346C612.736 643.687 603.5 633.759 593.92 623.737C588.802 618.384 583.708 612.727 578.164 607.863L580.934 611.464C577.988 610.025 564.24 595.129 562.264 591.921C570.385 583.134 580.288 573.808 588.858 565.274L627.506 526.4C633.309 520.605 648.194 506.722 652.336 501.052C647.028 493.484 635.165 484.103 628.804 476.027C614.252 461.756 597.836 445.056 583.921 430.276C578.596 424.909 570.702 417.34 565.988 411.747Z"/><path fill="#563339" d="M583.921 430.276C586.748 431.358 586 431.407 587.856 429.54C594.649 422.704 638.14 400.575 645.183 404.979C646.886 408.625 643.138 417.113 641.344 420.634C633.588 435.86 629.451 449.966 615.766 461.52C618.271 463.966 628.695 473.3 628.804 476.027C614.252 461.756 597.836 445.056 583.921 430.276Z"/><defs><linearGradient id="gradient_4" gradientUnits="userSpaceOnUse" x1="503.7254" y1="495.94101" x2="583.66107" y2="770.9444"><stop offset="0" stop-color="#242B49"/><stop offset="1" stop-color="#003C7F"/></linearGradient></defs><path fill="url(#gradient_4)" d="M476.241 502.598C496.899 524.635 518.837 545.963 539.466 568.054C543.98 572.887 559.464 587.818 562.264 591.921C564.24 595.129 577.988 610.025 580.934 611.464L578.164 607.863C583.708 612.727 588.802 618.384 593.92 623.737C603.5 633.759 612.736 643.687 622.702 653.346C626.313 651.68 635.573 638.909 638.568 639.418C637.1 641.772 625.311 652.585 622.921 654.795C642.644 674.754 661.68 695.596 681.275 715.708C687.153 721.741 695.241 729.493 700.215 736.066C700.239 737.462 700.379 736.773 699.364 738.072C695.933 739.829 682.18 738.987 677.221 738.989L630.295 739L581.995 739.023C573.577 739.031 564.625 739.323 556.303 739.009C548.913 731.825 540.363 722.508 533.12 714.967L479.825 659.134L431.309 608.784C421.271 598.381 410.229 587.329 400.709 576.563C404.61 571.515 413.889 563.655 418.64 558.932C432.484 545.173 450.34 530.124 463.112 515.79C466.687 512.73 472.715 506.18 476.241 502.598Z"/><path fill="#EF731D" d="M519.816 337.167C549.444 336.785 579.205 337.375 608.844 337.261C618.595 337.223 628.609 337.318 638.349 337.705C635.115 341.46 632.415 344.221 628.857 347.653L565.988 411.747L508.049 470.361C498.104 480.476 486.403 493.016 476.241 502.598C472.715 506.18 466.687 512.73 463.112 515.79C450.34 530.124 432.484 545.173 418.64 558.932C413.889 563.655 404.61 571.515 400.709 576.563L394.591 570.521C394.681 569.231 394.561 567.024 394.525 565.653C395.15 559.699 394.494 541.535 394.487 534.554L394.537 462.851L408.908 448.646C410.699 445.825 427.825 429.111 430.933 426.316C433.018 423.981 435.696 421.252 437.974 419.063C449.838 407.664 461.215 394.628 473.382 383.625C474.718 381.538 516.539 339.411 519.816 337.167Z"/><defs><linearGradient id="gradient_5" gradientUnits="userSpaceOnUse" x1="371.3649" y1="538.37177" x2="430.58011" y2="493.41074"><stop offset="0" stop-color="#8B0017"/><stop offset="1" stop-color="#CB4E1B"/></linearGradient></defs><path fill="url(#gradient_5)" d="M408.908 448.646C407.87 452.594 403.251 454.655 401.683 457.826C404.481 462.619 414.362 473.305 418.396 478.245C430.145 492.632 443.487 508.883 452.741 524.95C454.454 523.209 460.986 516.318 462.59 515.384L463.112 515.79C450.34 530.124 432.484 545.173 418.64 558.932C413.889 563.655 404.61 571.515 400.709 576.563L394.591 570.521C394.681 569.231 394.561 567.024 394.525 565.653C395.15 559.699 394.494 541.535 394.487 534.554L394.537 462.851L408.908 448.646Z"/><path fill="#F89A23" d="M473.382 383.625C472.812 388.545 443.79 412.065 443.297 415.706C442.919 418.492 446.369 419.962 445.882 424.362C445.808 425.025 445.907 425.469 446.139 426.087L445.487 426.504C441.381 425.6 439.386 423.127 435.803 424.056C433.721 424.596 432.796 426.01 430.933 426.316C433.018 423.981 435.696 421.252 437.974 419.063C449.838 407.664 461.215 394.628 473.382 383.625Z"/><path fill="#F89A23" d="M484.951 486.724L486.042 487.392C486.616 489.422 486.512 488.369 485.962 490.697L484.289 489.904C483.802 488.526 484.199 488.53 484.951 486.724Z"/></svg>