<svg xmlns="http://www.w3.org/2000/svg" width="800" height="808" viewBox="112 98 800 808">
    <path fill="#B02422"
        d="M511.131 98.7679C511.278 98.7648 511.426 98.7403 511.572 98.7586C513.27 98.9716 573.425 146.096 580.311 151.484L819.713 337.44C842.022 354.687 864.227 372.066 886.328 389.578C893.464 395.162 902.604 401.891 909.484 407.867C911.568 409.677 911.815 413.1 911.506 415.834C910.189 417.533 905.981 420.23 904.023 421.294C865.365 442.31 826.194 462.364 787.609 483.528C782.178 486.507 776.665 489.609 771.154 492.408C781.244 516.061 791.48 539.651 801.862 563.177C806.008 572.694 811.536 584.186 815.152 593.706C812.498 596.71 809.409 599.939 806.562 602.789C784.366 625.01 762.282 647.567 739.142 668.792C743.713 659.193 746.79 647.812 752.104 638.561C757.033 630.243 764.558 624.079 770.988 617.08C778.99 608.371 788.851 599.977 796.35 590.958L796.814 590.396L783.2 559.233C780.676 553.46 777.2 546.171 775.145 540.435C772.859 546.249 770.422 555.214 768.436 561.427L755.597 600.606C753.595 606.682 749.521 620.012 746.535 624.979C742.122 632.318 733.767 643.056 728.3 649.7C730.628 626.63 742.159 593.902 749.933 571.263C746.537 565.686 739.034 547.921 735.986 540.992C726.249 518.861 715.287 496.424 705.833 474.293C701.783 503.523 693.093 541.829 690.566 571.901C690.32 574.827 697.12 592.106 698.61 596.099C705.434 614.568 712.161 633.072 718.791 651.61C724.799 668.379 730.208 674.478 725.361 692.825C722.367 704.161 721.331 717.635 717.376 728.93C716.643 731.033 715.592 733.011 714.258 734.795C710.984 739.163 696.133 751.206 691.294 755.297C702.494 765.702 713.845 775.944 725.342 786.02C740.308 772.473 756.203 759.357 771.587 746.299C794.722 726.594 817.728 706.738 840.604 686.734L825.451 649.455C822.079 641.282 817.653 631.365 814.919 623.128C817.421 619.792 822.587 612.436 825.361 609.816C828.913 616.918 834.555 632.213 837.819 640.243C844.761 657.318 852.435 674.098 859.403 691.004C813.553 730.851 767.445 770.402 721.083 809.653C704.742 823.478 687.379 839.325 670.941 852.488C666.353 848.371 660.575 842.275 656.141 837.84L628.637 810.209C616.52 819.81 603.369 831.373 591.399 841.412L539.923 884.039C532.13 890.512 521.507 899.458 513.216 905.782C512.245 906.523 511.16 905.759 510.257 905.303C504.774 901.316 497.269 894.637 491.786 890.172L447.489 853.552L415.587 827.03C409.247 821.834 401.625 815.966 395.638 810.509C381.702 824.599 367.671 838.595 353.545 852.494C336.764 839.058 318.098 822.289 301.586 808.213L165.038 691.194C167.597 683.6 173.649 670.392 176.929 662.733C184.485 645.355 191.948 627.937 199.319 610.48C202.662 613.764 207.364 619.766 210.059 623.611C208.452 629.011 203.685 639.214 201.224 644.989L183.463 686.612C188.661 690.817 193.989 695.464 198.975 699.932C231.452 729.031 266.301 756.124 298.424 785.517L332.518 754.996C325.653 748.891 315.275 740.854 309.388 734.417C306.039 730.756 302.97 714.443 301.925 708.695C300.221 699.325 296.519 686.324 296.311 677.001C297.012 669.69 301.545 662.087 303.795 655.314C313.026 627.521 325.535 599.16 333.875 571.292C334.7 568.533 328.359 533.869 327.314 527.908C324.21 509.979 321.198 492.035 318.279 474.075C314.812 483.068 309.016 494.698 304.963 503.702L274.507 571.217C283.469 598.61 291.672 622.133 296.834 650.635C276.489 626.57 275.535 621.009 265.846 591.73C260.184 574.739 254.61 557.718 249.126 540.669C241.777 556.217 233.954 574.853 227.398 590.68C236.099 599.272 244.698 607.966 253.194 616.761C259.059 622.833 268.851 632.538 272.752 639.544C277.534 648.132 281.658 659.91 285.5 669.243C259.659 644.545 234.21 619.441 209.16 593.942C223.304 560.93 238.114 524.299 253.28 492.14C231.7 480.193 209.976 468.508 188.112 457.091C175.89 450.658 120.15 423.271 114.109 416.848C112.986 415.655 112.741 414.181 112.839 412.558C112.965 410.455 113.997 408.611 115.474 407.15C117.91 404.741 121.101 402.68 123.826 400.571L140.944 387.29C160.659 372.095 180.293 356.796 199.845 341.392L404.987 181.695L472.744 129.189C484.194 120.295 500.522 108.258 511.131 98.7679ZM258.244 518.654C260.987 527.741 264.75 540.774 268.133 549.453C269.976 544.177 273.913 536.046 276.324 530.678L290.857 498.248L307.634 461.411C311.416 452.944 316.253 441.224 320.606 433.209C323.866 441.982 329.973 458.875 335.353 465.835C340.222 472.132 421.858 539.384 425.84 541.201C428.232 542.292 430.937 542.906 433.472 543.599C433.582 547.038 433.611 551.108 433.986 554.467C448.489 541.481 464.366 529.515 479.775 517.56C490.112 509.539 501.419 499.563 512.098 492.233C538.7 512.409 564.43 533.889 590.948 553.791C590.568 550.429 590.534 547.037 590.846 543.668C604.122 539.493 614.198 529.1 625.012 520.152L667.301 484.749C671.764 480.981 687.507 468.386 689.723 464.327C694.583 455.422 698.754 442.671 703.533 432.89C707.684 440.696 712.245 451.636 715.946 459.876L741.369 516.087C745.933 526.162 751.53 539.491 756.704 549.046C758.73 539.872 763.113 528.009 765.72 518.398C755.182 495.352 744.969 472.159 735.085 448.825C731.403 440.29 724.872 427.453 722.099 419.034L302.229 419.057C298.145 427.651 294.474 436.802 290.626 445.55C280.106 470.039 269.311 494.408 258.244 518.654ZM511.714 765.611C481.131 743.443 449.171 717.09 419.663 693.413C395.827 674.288 370.378 654.652 346.94 635.217C344.131 626.693 342.904 616.149 341.045 607.343C340.602 605.247 340.16 601.046 339.698 599.339C332.122 621.389 323.807 649.743 315.233 671.102C333.2 686.941 355.268 701.863 373.695 717.985C380.561 712.397 390.359 703.163 396.941 698.42C400.539 701.773 404.044 705.226 407.452 708.773C393.385 722.317 377.632 734.691 363.329 748.04C360.897 750.309 358.236 752.707 355.717 754.876C368.332 765.983 383.067 778.047 395.121 789.272C401.004 783.451 406.823 777.563 412.575 771.612L385.946 748.283C388.932 744.987 392.829 740.63 396.447 738.009C405.571 744.436 415.097 753.672 423.721 760.91C431.579 753.547 439.767 745.991 447.357 738.385C451.936 740.586 455.687 743.267 459.722 746.342C451.519 754.571 443.27 762.755 434.976 770.893L486.279 813.426C494.265 820.054 504.11 828.828 512.352 834.816C528.12 821.52 543.96 808.309 559.871 795.184C568.647 787.905 580.998 778.068 589.106 770.304C582.331 763.397 569.143 750.631 563.567 743.587L574.376 734.139C583.374 742.455 591.644 752.609 600.806 760.715L627.23 738.3C631.126 741.264 634.869 744.579 638.024 748.334L630.811 754.841C624.288 760.308 617.838 765.862 611.464 771.502C614.899 775.16 625.788 786.309 629.638 789.375C633.958 784.859 644.052 776.54 649.11 772.25C655.243 767.048 662.379 760.036 668.384 755.162L633.633 723.634C630.424 720.722 618.33 710.068 616.282 707.073C617.428 704.222 623.607 699.115 626.213 696.772C630.976 699.52 644.922 713.448 650.357 717.96C661.399 709.746 672.523 700.261 683.599 691.843C689.725 687.186 703.536 676.784 708.538 671.725C701.745 648.722 692.152 621.791 684.21 598.965C683.178 605.187 679.096 632.486 676.507 634.952C664.861 646.044 645.659 660.264 632.988 670.364C609.907 688.84 586.72 707.18 563.425 725.386C557.289 730.268 551.068 735.744 544.797 740.36C533.999 748.309 522.918 758.372 511.714 765.611ZM256.917 316.949C253.593 328.898 250.5 341.109 247.362 353.126C243.364 368.437 238.172 385.55 234.956 400.974C248.413 386.27 260.983 371.925 274.143 357.029C289.26 339.917 305.125 323.317 320.167 306.022C345.65 277.89 374.406 243.593 400.941 217.285C399.511 230.153 396.431 243.777 393.791 256.53C386.216 293.13 379.922 330.511 371.532 366.901C383.603 343.086 488.617 139.484 488.834 136.028C482.784 141.706 474.139 148.01 467.429 153.211L432.834 180.089L307.842 276.85L275.738 301.742C270.161 306.092 261.905 312.213 256.917 316.949ZM344.124 765.445C332.691 775.188 321.771 785.348 310.374 795.112C315.335 799.996 321.774 805.23 327.17 809.826C335.507 817.01 343.945 824.077 352.482 831.023L353.112 831.162C363.404 820.821 373.944 810.717 384.104 800.25C375.233 791.961 365.72 783.905 356.638 775.82C355.07 774.423 345.559 766.21 344.124 765.445ZM673.065 830.637C686.206 819.328 700.422 807.873 713.205 796.326C703.332 786.801 689.907 774.739 679.433 765.97C667.496 776.424 652.26 790.039 640.097 799.817C644.19 804.438 667.626 829.563 671.606 831.376C672.352 831.085 672.519 831.132 673.065 830.637ZM687.666 487.917C669.966 502.37 652.406 516.994 634.987 531.786C626.159 539.164 617.126 546.442 608.672 554.229C605.562 557.095 606.46 563.354 606.575 567.219C609.002 570.234 610.017 571.309 612.884 573.909C615.306 576.198 617.817 578.646 620.308 580.837C627.246 568.468 645.104 555.035 656.418 545.661L681.658 524.74C682.678 520.28 688.333 490.838 687.666 487.917ZM611.092 592.786C587.705 568.985 557.012 548.454 531.397 526.906C529.283 525.128 513.624 512.259 512.103 511.896C501.514 519.623 490.853 528.635 480.409 536.702C457.183 554.642 434.917 572.607 413.203 592.394C418.654 599.827 424.361 607.126 429.76 614.51C438.382 606.73 508.634 545.626 512.482 545.242C512.575 545.233 512.668 545.264 512.76 545.275C520.478 550.714 530.397 559.723 537.96 565.826C557.598 581.675 575.948 597.851 594.407 615.042C599.385 607.243 605.208 599.923 611.092 592.786ZM404.393 580.657C406.629 578.59 409.026 576.282 411.31 574.307C413.453 572.261 415.772 570.128 417.857 568.049C417.997 563.194 417.62 560.013 417.43 555.355L364.959 511.537C355.461 503.673 345.148 494.811 335.463 487.381C337.768 499.628 339.815 511.884 342.414 524.071C350.008 530.651 357.675 537.146 365.414 543.556C377.468 553.518 396.234 568.12 404.393 580.657ZM358.745 620.393C364.799 615.798 371.104 609.595 377.095 604.644C382.234 600.036 388.132 594.988 393.074 590.268C382.787 577.714 370.992 567.465 358.393 557.336C355.238 554.8 349.406 549.694 346.259 547.648L354.089 592.605C355.504 600.543 357.957 612.655 358.745 620.393ZM738.879 418.976C746.106 438.03 756.261 458.912 764.322 478.1C788.365 465.038 812.891 452.455 836.802 439.296C848.949 432.693 862.833 425.018 875.255 419.07C830.251 418.867 783.644 419.653 738.879 418.976ZM467.954 403.027C483.021 402.979 499.217 403.349 514.125 402.931C527.942 402.973 543.365 403.317 557.07 402.973C547.049 392.085 537.262 380.984 527.715 369.679C523.19 364.409 516.932 356.68 512.169 351.999C502.307 363.56 492.374 375.061 482.37 386.5C477.915 391.617 472.081 397.866 467.954 403.027ZM650.455 356.977C645.464 334.817 641.357 311.728 636.957 289.382C632.189 265.165 626.88 240.481 622.962 216.161C661.267 258.083 699.33 300.227 737.147 342.59L770.983 380.619C776.766 387.113 785.181 395.989 790.122 402.753C786.467 392.593 784.483 382.502 781.64 372.186C776.655 354.094 772.592 335.211 767.101 317.309C762.531 312.793 753.687 306.245 748.315 302.009L707.434 270.357L593.613 181.925C575.596 167.968 553.526 151.704 536.133 137.259C571.977 211.574 611.657 285.223 648.803 358.933C649.098 359.876 652.118 365.661 652.743 366.901L650.455 356.977ZM647.745 604.75L665.348 620.861C665.79 614.813 667.357 607.37 668.411 601.254C670.428 589.412 672.508 577.582 674.65 565.762C675.112 563.183 677.546 549.846 677.419 548.002C667.194 556.248 638.424 579.235 630.873 589.989C636.893 594.983 641.942 599.625 647.745 604.75ZM582.753 625.752C577.859 619.8 568.966 612.105 563.085 606.929C551.097 596.522 539.003 586.238 526.804 576.079C523.841 573.586 515.035 565.462 512.38 563.965C498.892 574.637 484.02 587.672 470.831 598.916C463.333 605.257 455.969 611.754 448.744 618.403C446.066 620.836 441.067 625.131 438.75 627.681C448.154 641.534 463.672 653.027 476.408 664.213C487.615 674.056 499.577 684.623 511.016 694.113L512.251 694.533C515.203 692.941 529.67 680.164 532.734 677.511C542.457 669.126 552.101 660.65 561.665 652.084C567.109 647.203 579.464 637.246 581.541 630.63C582.033 629.027 582.437 627.399 582.753 625.752ZM604.329 625.272C612.944 634.689 622.764 642.716 630.873 652.688L635.204 649.102C642.15 643.839 649.037 638.5 655.865 633.085C644.493 622.743 632.989 612.547 621.356 602.5C615.862 609.833 609.601 617.842 604.329 625.272ZM512.17 124.354C504.076 139.167 496.251 156.088 488.548 171.275L429.036 288.364L423.906 296.911C426.676 294.086 428.8 291.475 431.318 288.414C434.608 284.134 440.415 278.055 444.204 273.805L468.974 245.977C482.911 230.296 497.681 212.017 512.097 197.155C519.277 203.232 533.457 221.152 540.311 228.834C560.322 251.262 580.886 273.819 599.971 297.006C596.012 290.185 592.383 283.194 588.832 276.155C568.227 235.309 547.464 194.547 526.635 153.813C521.65 144.066 517.247 134.037 512.17 124.354ZM709.972 690.558C694.055 702.393 677.356 715.762 661.778 728.111L671.001 736.339C674.113 739.324 677.282 742.249 680.505 745.113C708.941 720.802 702.379 727.993 710.27 691.189L709.972 690.558ZM404.633 661.762L441.373 690.815C445.759 694.472 450.204 698.058 454.707 701.572C451.101 692.813 432.053 641.459 428.007 638.389C420.448 646.408 412.653 654.203 404.633 661.762ZM619.207 661.94C611.571 654.44 603.215 645.376 595.641 638.272C584.138 659.484 578.762 681.273 569.139 701.403C573.575 697.934 578.816 693.619 583.314 690.383C595.016 680.958 607.272 671.006 619.207 661.94ZM805.839 402.81C829.434 402.242 854.673 403.562 877.688 402.863C847.922 379.077 817.425 355.898 787.472 332.316C793.892 355.237 799.279 380.073 805.839 402.81ZM419.861 625.468C418.159 623.07 404.044 603.76 402.626 602.372C391.447 612.496 380.148 622.487 368.731 632.342C375.671 637.916 382.675 644.298 389.451 649.638L392.708 652.257L419.861 625.468ZM313.081 689.325C322.506 723.392 313.693 720.128 343.493 744.608C346.638 742.046 350.961 738.725 353.78 735.952C356.499 733.612 360.15 730.636 362.585 728.141C353.727 720.313 342.147 712.049 332.794 704.531C328.988 701.472 316.845 691.651 313.081 689.325ZM600.788 813.867C606.253 809.319 612.856 804.142 618.097 799.481C611.825 793.076 606.143 787.656 599.727 781.506C578.711 797.947 558.248 816.463 537.563 833.337C531.299 838.447 518.104 850.438 512.053 854.505C482.748 830.413 453.756 805.278 424.272 781.633C418.455 787.392 412.728 793.24 407.091 799.175C430.908 820.21 455.19 840.712 479.919 860.667L500.004 877.115C503.42 879.917 508.675 884.485 512.223 886.86C541.116 863.749 572.766 837.946 600.788 813.867ZM236.778 332.555C228.434 338.789 148.507 400.382 147.314 402.718L147.979 402.836C163.259 402.452 179.088 402.765 194.403 402.676C198.88 402.65 214.864 402.397 218.713 403.006C222.967 383.861 228.704 364.953 233.546 345.946C234.135 343.634 236.836 334.125 236.778 332.555ZM455.368 666.459C459.596 678.282 470.592 708.682 476.683 718.428C478.811 721.833 506.961 742.645 512.138 746.46C542.169 722.592 546.386 726.475 559.461 689.658C562.013 683.187 566.09 671.854 569.021 665.967C561.952 672.799 551.935 681.055 544.316 687.568C534.852 695.66 521.995 707.533 512.021 714.524C492.456 698.616 474.504 682.339 455.368 666.459ZM150.206 419.105C156.73 423.49 169.582 429.536 177.01 433.697C203.749 448.676 233.252 462.27 259.671 477.575C261.821 472.703 265.804 464.414 267.449 459.792C273.575 446.296 279.55 432.732 285.374 419.102C280.679 419.492 273.981 419.201 269.136 419.14C260.654 419.019 252.172 418.966 243.689 418.982L150.206 419.105ZM647.748 267.245C657.831 311.89 665.914 357.987 675.271 402.873C698.177 401.741 723.881 403.248 747.047 402.712C754.175 402.547 762.867 403.232 769.703 402.823C769.646 402.01 748.228 378.479 745.718 375.668L684.062 306.949C672.403 293.872 660.56 280.09 648.226 267.623C648.066 267.497 647.907 267.371 647.748 267.245ZM375.421 268.016C338.998 306.333 304.419 346.838 268.967 386.085C264.281 391.273 259.304 396.596 254.925 402.033L254.967 402.691L255.189 402.841L349.674 403.019C351.682 388.737 376.133 269.657 375.421 268.016ZM512.209 285.905C502.551 295.98 492.149 308.16 483.207 318.917C459.661 347.239 432.762 374.425 409.755 403.061L447.215 402.997C468.172 378.471 489.859 354.372 510.994 329.99C511.557 329.342 512.036 329.084 512.822 328.963C517.955 334.425 523.188 340.382 528.063 346.109C544.267 365.147 561.625 383.684 577.405 403.019C589.752 402.991 603.098 403.217 615.384 402.853C580.34 365.031 547.644 323.004 512.209 285.905ZM512.142 220.978C493.41 240.833 474.104 263.793 455.917 284.417L419.632 325.386C408.458 338.098 395.307 352.444 387.118 367.179C380.987 378.209 373.255 391.426 368.147 402.894C375.387 402.989 382.628 403.018 389.868 402.979C398.351 392.328 408.237 381.581 417.197 371.214C433.266 352.527 449.432 333.924 465.695 315.405L499.05 277.222C500.849 275.177 511.072 262.409 512.71 262.778C544.324 298.186 575.664 333.838 606.727 369.73C616.29 380.832 626.147 391.759 635.504 402.993C641.851 402.34 650.263 402.992 656.98 402.828C648.108 389.819 638.974 367.688 630.636 356.609C616.603 337.965 597.297 316.647 581.693 299.098C558.753 273.298 535.616 246.161 512.142 220.978Z" />
    <path fill="#B02422"
        d="M355.502 441.461C399.363 453.231 443.702 468.011 487.916 479.666C483.04 482.165 474.873 485.407 469.626 487.692C457.338 492.766 442.153 500.726 430.431 504.882C418.483 495.99 401.607 480.669 389.593 470.638L368.47 453.005C364.928 450.046 358.299 444.831 355.502 441.461Z" />
    <path fill="#B02422"
        d="M667.481 442.183L667.633 442.322C667.402 444.037 600.697 498.929 593.53 504.82C581.775 500.448 566.8 492.618 554.251 487.509C548.244 484.951 542.256 482.346 536.289 479.694C568.011 471.581 599.747 461.226 631.451 452.817C642.242 449.954 656.828 444.315 667.481 442.183Z" />
    <path fill="#7D7B7E" fill-opacity="0.0078431377"
        d="M488.834 136.028C488.617 139.484 383.603 343.086 371.532 366.901C379.922 330.511 386.216 293.13 393.791 256.53C396.431 243.777 399.511 230.153 400.941 217.285C374.406 243.593 345.65 277.89 320.167 306.022C305.125 323.317 289.26 339.917 274.143 357.029C260.983 371.925 248.413 386.27 234.956 400.974C238.172 385.55 243.364 368.437 247.362 353.126C250.5 341.109 253.593 328.898 256.917 316.949C261.905 312.213 270.161 306.092 275.738 301.742L307.842 276.85L432.834 180.089L467.429 153.211C474.139 148.01 482.784 141.706 488.834 136.028Z" />
    <path fill="#B02422"
        d="M493.068 611.16C504.666 610.681 518.296 610.943 530 611.259C538.365 611.485 542.544 618.534 544.734 626.016C540.698 626.101 536.662 626.15 532.625 626.163C516.036 626.052 495.85 625.593 479.459 626.211C481.962 618.344 484.245 613.153 493.068 611.16Z" />
    <path fill="#F3F3F5" fill-opacity="0.011764706"
        d="M648.803 358.933L648.71 356.503L649.131 356.123L650.455 356.977L652.743 366.901C652.118 365.661 649.098 359.876 648.803 358.933Z" />
    <path fill="#F3F3F5" fill-opacity="0.035294119"
        d="M423.906 296.911L429.036 288.364L431.318 288.414C428.8 291.475 426.676 294.086 423.906 296.911Z" />
    <path fill="#B02422"
        d="M794.092 633.291C795.437 634.506 809.287 673.569 811.058 678.087C803.823 685.678 790.917 696.37 782.638 703.658C765.454 718.785 748.184 733.815 730.83 748.747L726.529 752.056C731.674 728.341 736.104 725.725 753.193 709.981C765.935 698.242 781.427 686.061 793.496 673.91C790.576 664.034 786.211 654.986 783.802 644.733C786.795 641.104 790.878 636.842 794.092 633.291Z" />
    <path fill="#B02422"
        d="M230.038 633.727C233.452 637.04 238.042 642.313 240.8 646.18C237.897 655.322 234.07 664.564 230.81 673.656C234.247 677.24 240.519 682.396 244.417 685.842L270.409 708.945C288.66 725.291 291.916 727.547 297.746 751.31L293.287 747.693C280.267 737.304 266.514 725.112 253.879 714.073C240.759 702.611 226.208 690.304 213.564 678.448C216.999 666.722 225.362 645.468 230.038 633.727Z" />
</svg>